G75*
%MOIN*%
%OFA0B0*%
%FSLAX25Y25*%
%IPPOS*%
%LPD*%
%AMOC8*
5,1,8,0,0,1.08239X$1,22.5*
%
%ADD10C,0.00000*%
%ADD11C,0.00500*%
D10*
X0040000Y0001600D02*
X0040000Y0061561D01*
X0140000Y0061600D01*
X0140000Y0001600D01*
X0040000Y0001600D01*
D11*
X0095882Y0020150D02*
X0095882Y0021651D01*
X0096383Y0022152D01*
X0096883Y0021651D01*
X0096883Y0020150D01*
X0097884Y0020150D02*
X0097884Y0022152D01*
X0097383Y0022152D01*
X0096883Y0021651D01*
X0099105Y0021651D02*
X0099105Y0020150D01*
X0101107Y0020150D02*
X0101107Y0023153D01*
X0100606Y0022152D02*
X0099605Y0022152D01*
X0099105Y0021651D01*
X0100606Y0022152D02*
X0101107Y0021651D01*
X0102328Y0020650D02*
X0102328Y0022652D01*
X0102828Y0023153D01*
X0103829Y0023153D01*
X0104329Y0022652D01*
X0104329Y0020650D01*
X0103829Y0020150D01*
X0102828Y0020150D01*
X0102328Y0020650D01*
X0108773Y0020650D02*
X0109274Y0020150D01*
X0110274Y0020150D01*
X0110775Y0020650D01*
X0108773Y0022652D01*
X0108773Y0020650D01*
X0110775Y0020650D02*
X0110775Y0022652D01*
X0110274Y0023153D01*
X0109274Y0023153D01*
X0108773Y0022652D01*
X0111996Y0022652D02*
X0111996Y0022152D01*
X0112496Y0021651D01*
X0111996Y0021151D01*
X0111996Y0020650D01*
X0112496Y0020150D01*
X0113497Y0020150D01*
X0113998Y0020650D01*
X0115219Y0020650D02*
X0115719Y0020150D01*
X0116720Y0020150D01*
X0117220Y0020650D01*
X0115719Y0021651D02*
X0115219Y0021151D01*
X0115219Y0020650D01*
X0115719Y0021651D02*
X0116220Y0021651D01*
X0115719Y0021651D02*
X0115219Y0022152D01*
X0115219Y0022652D01*
X0115719Y0023153D01*
X0116720Y0023153D01*
X0117220Y0022652D01*
X0113998Y0022652D02*
X0113497Y0023153D01*
X0112496Y0023153D01*
X0111996Y0022652D01*
X0112496Y0021651D02*
X0112997Y0021651D01*
X0113497Y0018603D02*
X0112496Y0018603D01*
X0111996Y0018102D01*
X0113998Y0016100D01*
X0113497Y0015600D01*
X0112496Y0015600D01*
X0111996Y0016100D01*
X0111996Y0018102D01*
X0110775Y0018603D02*
X0110775Y0015600D01*
X0110775Y0016601D02*
X0109274Y0015600D01*
X0110775Y0016601D02*
X0109274Y0017602D01*
X0113497Y0018603D02*
X0113998Y0018102D01*
X0113998Y0016100D01*
X0115219Y0015600D02*
X0117220Y0015600D01*
X0116220Y0015600D02*
X0116220Y0018603D01*
X0117220Y0017602D01*
X0121554Y0017602D02*
X0121554Y0017101D01*
X0122055Y0017101D01*
X0122055Y0017602D01*
X0121554Y0017602D01*
X0121554Y0016100D02*
X0121554Y0015600D01*
X0122055Y0015600D01*
X0122055Y0016100D01*
X0121554Y0016100D01*
X0123276Y0015600D02*
X0125277Y0015600D01*
X0123276Y0017602D01*
X0123276Y0018102D01*
X0123776Y0018603D01*
X0124777Y0018603D01*
X0125277Y0018102D01*
X0126498Y0018102D02*
X0126498Y0017101D01*
X0126999Y0016601D01*
X0128500Y0016601D01*
X0127499Y0016601D02*
X0126498Y0015600D01*
X0128500Y0015600D02*
X0128500Y0018603D01*
X0126999Y0018603D01*
X0126498Y0018102D01*
X0126498Y0020150D02*
X0127499Y0021151D01*
X0126999Y0021151D02*
X0128500Y0021151D01*
X0126999Y0021151D02*
X0126498Y0021651D01*
X0126498Y0022652D01*
X0126999Y0023153D01*
X0128500Y0023153D01*
X0128500Y0020150D01*
X0125277Y0020150D02*
X0123276Y0020150D01*
X0124276Y0020150D02*
X0124276Y0023153D01*
X0125277Y0022152D01*
X0122055Y0022152D02*
X0122055Y0021651D01*
X0121554Y0021651D01*
X0121554Y0022152D01*
X0122055Y0022152D01*
X0122055Y0020650D02*
X0121554Y0020650D01*
X0121554Y0020150D01*
X0122055Y0020150D01*
X0122055Y0020650D01*
X0122055Y0024700D02*
X0121554Y0024700D01*
X0121554Y0025200D01*
X0122055Y0025200D01*
X0122055Y0024700D01*
X0123276Y0025200D02*
X0123276Y0025701D01*
X0123776Y0026201D01*
X0124276Y0026201D01*
X0123776Y0026201D02*
X0123276Y0026702D01*
X0123276Y0027202D01*
X0123776Y0027703D01*
X0124777Y0027703D01*
X0125277Y0027202D01*
X0126498Y0027202D02*
X0126999Y0027703D01*
X0128000Y0027703D01*
X0128500Y0027202D01*
X0128500Y0025200D01*
X0128000Y0024700D01*
X0126999Y0024700D01*
X0126498Y0025200D01*
X0125277Y0025200D02*
X0124777Y0024700D01*
X0123776Y0024700D01*
X0123276Y0025200D01*
X0122055Y0026201D02*
X0121554Y0026201D01*
X0121554Y0026702D01*
X0122055Y0026702D01*
X0122055Y0026201D01*
X0117220Y0026702D02*
X0116220Y0027703D01*
X0116220Y0024700D01*
X0117220Y0024700D02*
X0115219Y0024700D01*
X0113998Y0025200D02*
X0111996Y0027202D01*
X0111996Y0025200D01*
X0112496Y0024700D01*
X0113497Y0024700D01*
X0113998Y0025200D01*
X0113998Y0027202D01*
X0113497Y0027703D01*
X0112496Y0027703D01*
X0111996Y0027202D01*
X0110775Y0027202D02*
X0110274Y0027703D01*
X0109274Y0027703D01*
X0108773Y0027202D01*
X0110775Y0025200D01*
X0110274Y0024700D01*
X0109274Y0024700D01*
X0108773Y0025200D01*
X0108773Y0027202D01*
X0107552Y0026702D02*
X0106051Y0026702D01*
X0105550Y0026201D01*
X0105550Y0024700D01*
X0107552Y0024700D02*
X0107552Y0026702D01*
X0110775Y0027202D02*
X0110775Y0025200D01*
X0110775Y0029250D02*
X0110775Y0031252D01*
X0109274Y0031252D01*
X0108773Y0030751D01*
X0108773Y0029250D01*
X0111996Y0029750D02*
X0112496Y0029250D01*
X0113497Y0029250D01*
X0113998Y0029750D01*
X0111996Y0031752D01*
X0111996Y0029750D01*
X0113998Y0029750D02*
X0113998Y0031752D01*
X0113497Y0032253D01*
X0112496Y0032253D01*
X0111996Y0031752D01*
X0112496Y0033800D02*
X0113497Y0033800D01*
X0113998Y0034300D01*
X0111996Y0036302D01*
X0111996Y0034300D01*
X0112496Y0033800D01*
X0113998Y0034300D02*
X0113998Y0036302D01*
X0113497Y0036803D01*
X0112496Y0036803D01*
X0111996Y0036302D01*
X0110775Y0036302D02*
X0110274Y0036803D01*
X0109274Y0036803D01*
X0108773Y0036302D01*
X0110775Y0034300D01*
X0110274Y0033800D01*
X0109274Y0033800D01*
X0108773Y0034300D01*
X0108773Y0036302D01*
X0107552Y0035802D02*
X0106051Y0035802D01*
X0105550Y0035301D01*
X0105550Y0033800D01*
X0107552Y0033800D02*
X0107552Y0035802D01*
X0110775Y0036302D02*
X0110775Y0034300D01*
X0115219Y0033800D02*
X0117220Y0033800D01*
X0116220Y0033800D02*
X0116220Y0036803D01*
X0117220Y0035802D01*
X0121554Y0035802D02*
X0121554Y0035301D01*
X0122055Y0035301D01*
X0122055Y0035802D01*
X0121554Y0035802D01*
X0121554Y0034300D02*
X0121554Y0033800D01*
X0122055Y0033800D01*
X0122055Y0034300D01*
X0121554Y0034300D01*
X0123276Y0033800D02*
X0125277Y0033800D01*
X0124276Y0033800D02*
X0124276Y0036803D01*
X0125277Y0035802D01*
X0126498Y0036302D02*
X0126999Y0036803D01*
X0128000Y0036803D01*
X0128500Y0036302D01*
X0128500Y0034300D01*
X0128000Y0033800D01*
X0126999Y0033800D01*
X0126498Y0034300D01*
X0126999Y0032253D02*
X0128000Y0032253D01*
X0128500Y0031752D01*
X0128500Y0029750D01*
X0128000Y0029250D01*
X0126999Y0029250D01*
X0126498Y0029750D01*
X0125277Y0029250D02*
X0123276Y0031252D01*
X0123276Y0031752D01*
X0123776Y0032253D01*
X0124777Y0032253D01*
X0125277Y0031752D01*
X0126498Y0031752D02*
X0126999Y0032253D01*
X0122055Y0031252D02*
X0122055Y0030751D01*
X0121554Y0030751D01*
X0121554Y0031252D01*
X0122055Y0031252D01*
X0122055Y0029750D02*
X0121554Y0029750D01*
X0121554Y0029250D01*
X0122055Y0029250D01*
X0122055Y0029750D01*
X0123276Y0029250D02*
X0125277Y0029250D01*
X0117220Y0029250D02*
X0115219Y0029250D01*
X0116220Y0029250D02*
X0116220Y0032253D01*
X0117220Y0031252D01*
X0116720Y0038350D02*
X0115719Y0038350D01*
X0115219Y0038850D01*
X0115219Y0039351D01*
X0115719Y0039851D01*
X0116720Y0039851D01*
X0117220Y0040352D01*
X0117220Y0040852D01*
X0116720Y0041353D01*
X0115719Y0041353D01*
X0115219Y0040852D01*
X0113998Y0041353D02*
X0111996Y0041353D01*
X0112997Y0041353D02*
X0112997Y0038350D01*
X0110775Y0038350D02*
X0110775Y0041353D01*
X0109774Y0040352D01*
X0108773Y0041353D01*
X0108773Y0038350D01*
X0107552Y0038850D02*
X0107052Y0038350D01*
X0106051Y0038350D01*
X0105550Y0038850D01*
X0105550Y0039351D01*
X0106051Y0039851D01*
X0106551Y0039851D01*
X0106051Y0039851D02*
X0105550Y0040352D01*
X0105550Y0040852D01*
X0106051Y0041353D01*
X0107052Y0041353D01*
X0107552Y0040852D01*
X0104329Y0040852D02*
X0103829Y0041353D01*
X0102828Y0041353D01*
X0102328Y0040852D01*
X0102328Y0040352D01*
X0104329Y0038350D01*
X0102328Y0038350D01*
X0101107Y0038350D02*
X0101107Y0041353D01*
X0099105Y0041353D01*
X0097884Y0040852D02*
X0097383Y0041353D01*
X0096383Y0041353D01*
X0095882Y0040852D01*
X0097884Y0038850D01*
X0097383Y0038350D01*
X0096383Y0038350D01*
X0095882Y0038850D01*
X0095882Y0040852D01*
X0094661Y0040852D02*
X0094161Y0041353D01*
X0093160Y0041353D01*
X0092659Y0040852D01*
X0092659Y0040352D01*
X0093160Y0039851D01*
X0092659Y0039351D01*
X0092659Y0038850D01*
X0093160Y0038350D01*
X0094161Y0038350D01*
X0094661Y0038850D01*
X0093660Y0039851D02*
X0093160Y0039851D01*
X0091438Y0038850D02*
X0091438Y0040852D01*
X0090938Y0041353D01*
X0089937Y0041353D01*
X0089437Y0040852D01*
X0091438Y0038850D01*
X0090938Y0038350D01*
X0089937Y0038350D01*
X0089437Y0038850D01*
X0089437Y0040852D01*
X0088216Y0041353D02*
X0086214Y0041353D01*
X0087215Y0039851D02*
X0088216Y0039851D01*
X0088216Y0038350D02*
X0088216Y0041353D01*
X0084993Y0039851D02*
X0082991Y0039851D01*
X0081770Y0039351D02*
X0080269Y0039351D01*
X0079768Y0039851D01*
X0079768Y0040852D01*
X0080269Y0041353D01*
X0081770Y0041353D01*
X0081770Y0038350D01*
X0083492Y0038350D02*
X0083492Y0041353D01*
X0084993Y0039851D01*
X0078547Y0039851D02*
X0078547Y0038850D01*
X0078047Y0038350D01*
X0077046Y0038350D01*
X0076546Y0038850D01*
X0076546Y0039351D01*
X0077046Y0039851D01*
X0078547Y0039851D01*
X0077547Y0040852D01*
X0076546Y0041353D01*
X0097884Y0040852D02*
X0097884Y0038850D01*
X0100106Y0039851D02*
X0101107Y0039851D01*
X0116720Y0038350D02*
X0117220Y0038850D01*
X0121554Y0038850D02*
X0121554Y0038350D01*
X0122055Y0038350D01*
X0122055Y0038850D01*
X0121554Y0038850D01*
X0121554Y0039851D02*
X0122055Y0039851D01*
X0122055Y0040352D01*
X0121554Y0040352D01*
X0121554Y0039851D01*
X0124276Y0041353D02*
X0124276Y0038350D01*
X0123276Y0038350D02*
X0125277Y0038350D01*
X0126498Y0038850D02*
X0126498Y0041353D01*
X0128500Y0041353D02*
X0128500Y0038850D01*
X0128000Y0038350D01*
X0126999Y0038350D01*
X0126498Y0038850D01*
X0125277Y0040352D02*
X0124276Y0041353D01*
M02*
