%
M48
M72
T01C0.0130
T02C0.0394
T03C0.0400
%
T01
X9500Y2598
X9500Y3223
X8000Y3535
X6563Y3098
X8063Y4473
X6438Y4973
X9750Y4785
X13188Y3700
X13188Y2995
T02
X4500Y660
X5500Y660
X6500Y660
X7500Y660
X8500Y660
X9500Y660
X10500Y660
X11500Y660
X12500Y660
X13500Y660
T03
X4500Y1660
X4500Y2660
X4500Y3660
X4500Y4660
X4500Y5660
X5500Y5660
X6500Y5660
X7500Y5660
X8500Y5660
X9500Y5660
X10500Y5660
X11500Y5660
X12500Y5660
X13500Y5660
M30
