G75*
%MOIN*%
%OFA0B0*%
%FSLAX25Y25*%
%IPPOS*%
%LPD*%
%AMOC8*
5,1,8,0,0,1.08239X$1,22.5*
%
%ADD10C,0.00000*%
%ADD11C,0.00500*%
%ADD12C,0.00591*%
%ADD13C,0.00787*%
D10*
X0040000Y0001600D02*
X0040000Y0061561D01*
X0140000Y0061600D01*
X0140000Y0001600D01*
X0040000Y0001600D01*
D11*
X0049114Y0011589D02*
X0051237Y0009466D01*
X0052299Y0010528D01*
X0052299Y0011235D01*
X0051945Y0011589D01*
X0051237Y0011589D01*
X0050176Y0010528D01*
X0051237Y0011589D02*
X0051237Y0012297D01*
X0050884Y0012651D01*
X0050176Y0012651D01*
X0049114Y0011589D01*
X0051393Y0013868D02*
X0052809Y0015283D01*
X0052101Y0014576D02*
X0054224Y0012453D01*
X0057239Y0010964D02*
X0058655Y0012380D01*
X0059872Y0012889D02*
X0059872Y0013597D01*
X0060580Y0014305D01*
X0061287Y0014305D01*
X0061287Y0011474D01*
X0061995Y0011474D01*
X0062703Y0012181D01*
X0062703Y0012889D01*
X0061287Y0014305D01*
X0060904Y0015725D02*
X0059903Y0016726D01*
X0060404Y0016726D02*
X0058902Y0016726D01*
X0060404Y0016726D02*
X0060904Y0017226D01*
X0060904Y0018227D01*
X0060404Y0018728D01*
X0058902Y0018728D01*
X0058902Y0015725D01*
X0056857Y0015793D02*
X0056857Y0015085D01*
X0056149Y0014378D01*
X0055441Y0014378D01*
X0055441Y0017208D01*
X0056857Y0015793D01*
X0055441Y0014378D02*
X0054026Y0015793D01*
X0054026Y0016501D01*
X0054734Y0017208D01*
X0055441Y0017208D01*
X0052877Y0016975D02*
X0051876Y0017976D01*
X0052376Y0017976D02*
X0050875Y0017976D01*
X0052376Y0017976D02*
X0052877Y0018476D01*
X0052877Y0019477D01*
X0052376Y0019978D01*
X0050875Y0019978D01*
X0050875Y0016975D01*
X0058194Y0019700D02*
X0060556Y0019700D01*
X0062125Y0018227D02*
X0062625Y0018728D01*
X0063626Y0018728D01*
X0064127Y0018227D01*
X0064127Y0017727D01*
X0062125Y0015725D01*
X0064127Y0015725D01*
X0067652Y0016225D02*
X0068153Y0015725D01*
X0069154Y0015725D01*
X0069654Y0016225D01*
X0070875Y0016225D02*
X0071375Y0015725D01*
X0072376Y0015725D01*
X0072877Y0016225D01*
X0072877Y0016726D01*
X0072376Y0017226D01*
X0071876Y0017226D01*
X0072376Y0017226D02*
X0072877Y0017727D01*
X0072877Y0018227D01*
X0072376Y0018728D01*
X0071375Y0018728D01*
X0070875Y0018227D01*
X0069654Y0018227D02*
X0069154Y0018728D01*
X0068153Y0018728D01*
X0067652Y0018227D01*
X0067652Y0016225D01*
X0070226Y0013951D02*
X0072349Y0011828D01*
X0073057Y0012535D02*
X0071641Y0011120D01*
X0070226Y0012535D02*
X0070226Y0013951D01*
X0068655Y0012380D02*
X0067239Y0010964D01*
X0069362Y0008841D01*
X0068301Y0009903D02*
X0069009Y0010610D01*
X0061287Y0011474D02*
X0059872Y0012889D01*
X0057239Y0010964D02*
X0059362Y0008841D01*
X0058301Y0009903D02*
X0059009Y0010610D01*
X0077239Y0010964D02*
X0078301Y0012026D01*
X0079009Y0012026D01*
X0079716Y0011318D01*
X0079716Y0010610D01*
X0078655Y0009549D01*
X0079362Y0010256D02*
X0080778Y0010257D01*
X0081287Y0011474D02*
X0081995Y0011474D01*
X0082703Y0012181D01*
X0082703Y0012889D01*
X0082349Y0013243D01*
X0081641Y0013243D01*
X0080934Y0012535D01*
X0080226Y0012535D01*
X0079872Y0012889D01*
X0079872Y0013597D01*
X0080580Y0014305D01*
X0081287Y0014305D01*
X0081797Y0015522D02*
X0083212Y0016937D01*
X0082505Y0016230D02*
X0084628Y0014106D01*
X0087947Y0011672D02*
X0089362Y0011672D01*
X0090778Y0010257D01*
X0089716Y0011318D02*
X0088301Y0009903D01*
X0087947Y0010257D02*
X0087947Y0011672D01*
X0087947Y0010257D02*
X0089362Y0008841D01*
X0091287Y0011474D02*
X0091287Y0014305D01*
X0092703Y0012889D01*
X0092703Y0012181D01*
X0091995Y0011474D01*
X0091287Y0011474D01*
X0089872Y0012889D01*
X0089872Y0013597D01*
X0090580Y0014305D01*
X0091287Y0014305D01*
X0098572Y0011672D02*
X0099987Y0011672D01*
X0101403Y0010257D01*
X0102266Y0011120D02*
X0103682Y0012535D01*
X0102974Y0011828D02*
X0100851Y0013951D01*
X0100851Y0012535D01*
X0100341Y0011318D02*
X0098926Y0009903D01*
X0098572Y0010257D02*
X0098572Y0011672D01*
X0098572Y0010257D02*
X0099987Y0008841D01*
X0107947Y0010257D02*
X0107947Y0011672D01*
X0109362Y0011672D01*
X0110778Y0010257D01*
X0111641Y0011120D02*
X0111641Y0013951D01*
X0111287Y0014305D01*
X0110580Y0014305D01*
X0109872Y0013597D01*
X0109872Y0012889D01*
X0111641Y0011120D02*
X0113057Y0012535D01*
X0109716Y0011318D02*
X0108301Y0009903D01*
X0107947Y0010257D02*
X0109362Y0008841D01*
X0117947Y0010257D02*
X0117947Y0011672D01*
X0119362Y0011672D01*
X0120778Y0010257D01*
X0119716Y0011318D02*
X0118301Y0009903D01*
X0117947Y0010257D02*
X0119362Y0008841D01*
X0121287Y0011474D02*
X0121995Y0011474D01*
X0122703Y0012181D01*
X0122703Y0012889D01*
X0122349Y0013243D01*
X0121641Y0013243D01*
X0121287Y0012889D01*
X0121641Y0013243D02*
X0121641Y0013951D01*
X0121287Y0014305D01*
X0120580Y0014305D01*
X0119872Y0013597D01*
X0119872Y0012889D01*
X0127947Y0011672D02*
X0127947Y0010257D01*
X0129362Y0008841D01*
X0128301Y0009903D02*
X0129716Y0011318D01*
X0129362Y0011672D02*
X0127947Y0011672D01*
X0129362Y0011672D02*
X0130778Y0010257D01*
X0130580Y0012181D02*
X0131995Y0013597D01*
X0130580Y0014305D02*
X0130580Y0012181D01*
X0132703Y0012181D02*
X0130580Y0014305D01*
X0134747Y0014448D02*
X0134747Y0015949D01*
X0135248Y0016449D01*
X0137250Y0016449D01*
X0137750Y0015949D01*
X0137750Y0014448D01*
X0134747Y0014448D01*
X0134747Y0013227D02*
X0136749Y0013227D01*
X0137750Y0012226D01*
X0136749Y0011225D01*
X0134747Y0011225D01*
X0134747Y0017670D02*
X0134747Y0019172D01*
X0135248Y0019672D01*
X0137250Y0019672D01*
X0137750Y0019172D01*
X0137750Y0017670D01*
X0134747Y0017670D01*
X0132875Y0019877D02*
X0130873Y0019877D01*
X0130372Y0020378D01*
X0130372Y0021379D01*
X0130873Y0021879D01*
X0132875Y0021879D02*
X0133375Y0021379D01*
X0133375Y0020378D01*
X0132875Y0019877D01*
X0133375Y0023100D02*
X0133375Y0025102D01*
X0133375Y0024101D02*
X0130372Y0024101D01*
X0131373Y0023100D01*
X0134747Y0023070D02*
X0137750Y0023070D01*
X0137750Y0025072D01*
X0137750Y0026293D02*
X0134747Y0026293D01*
X0134747Y0028295D01*
X0136249Y0027294D02*
X0136249Y0026293D01*
X0137750Y0026293D02*
X0137750Y0028295D01*
X0137750Y0029516D02*
X0134747Y0029516D01*
X0134747Y0031017D01*
X0135248Y0031518D01*
X0137250Y0031518D01*
X0137750Y0031017D01*
X0137750Y0029516D01*
X0137750Y0032739D02*
X0137250Y0032739D01*
X0137250Y0033239D01*
X0137750Y0033239D01*
X0137750Y0032739D01*
X0136249Y0032739D02*
X0136249Y0033239D01*
X0135748Y0033239D01*
X0135748Y0032739D01*
X0136249Y0032739D01*
X0136249Y0034975D02*
X0136249Y0036476D01*
X0136749Y0036977D01*
X0137250Y0036977D01*
X0137750Y0036476D01*
X0137750Y0034975D01*
X0134747Y0034975D01*
X0134747Y0036476D01*
X0135248Y0036977D01*
X0135748Y0036977D01*
X0136249Y0036476D01*
X0135748Y0038198D02*
X0134747Y0039199D01*
X0137750Y0039199D01*
X0137750Y0040199D02*
X0137750Y0038198D01*
X0130025Y0039169D02*
X0130025Y0041531D01*
X0130372Y0042377D02*
X0130372Y0043879D01*
X0130873Y0044379D01*
X0131874Y0044379D01*
X0132374Y0043879D01*
X0132374Y0042377D01*
X0133375Y0042377D02*
X0130372Y0042377D01*
X0132374Y0043378D02*
X0133375Y0044379D01*
X0134747Y0044308D02*
X0134747Y0043307D01*
X0135248Y0042807D01*
X0137250Y0042807D01*
X0137750Y0043307D01*
X0137750Y0044308D01*
X0137250Y0044808D01*
X0136249Y0044808D01*
X0136249Y0043808D01*
X0135248Y0044808D02*
X0134747Y0044308D01*
X0134747Y0046029D02*
X0137750Y0048031D01*
X0134747Y0048031D01*
X0133375Y0047602D02*
X0133375Y0045600D01*
X0133375Y0046601D02*
X0130372Y0046601D01*
X0131373Y0045600D01*
X0134747Y0046029D02*
X0137750Y0046029D01*
X0137750Y0049252D02*
X0134747Y0049252D01*
X0134747Y0050754D01*
X0135248Y0051254D01*
X0137250Y0051254D01*
X0137750Y0050754D01*
X0137750Y0049252D01*
X0133058Y0050666D02*
X0131643Y0052082D01*
X0130581Y0051020D01*
X0131643Y0050666D01*
X0131997Y0050313D01*
X0131997Y0049605D01*
X0131289Y0048897D01*
X0130581Y0048897D01*
X0129874Y0049605D01*
X0129874Y0050313D01*
X0128657Y0050822D02*
X0130072Y0052238D01*
X0130072Y0053653D01*
X0128657Y0053653D01*
X0127241Y0052238D01*
X0128303Y0053299D02*
X0129718Y0051884D01*
X0123058Y0050666D02*
X0121997Y0051020D01*
X0120581Y0051020D01*
X0121643Y0049959D01*
X0121643Y0049251D01*
X0121289Y0048897D01*
X0120581Y0048897D01*
X0119874Y0049605D01*
X0119874Y0050313D01*
X0120581Y0051020D01*
X0119718Y0051884D02*
X0118303Y0053299D01*
X0118657Y0053653D02*
X0120072Y0053653D01*
X0120072Y0052238D01*
X0118657Y0050822D01*
X0117241Y0052238D02*
X0118657Y0053653D01*
X0113058Y0050666D02*
X0112705Y0050313D01*
X0109874Y0050313D01*
X0109520Y0049959D01*
X0108657Y0050822D02*
X0110072Y0052238D01*
X0110072Y0053653D01*
X0108657Y0053653D01*
X0107241Y0052238D01*
X0108303Y0053299D02*
X0109718Y0051884D01*
X0111643Y0052082D02*
X0113058Y0050666D01*
X0102705Y0050313D02*
X0102705Y0051020D01*
X0101997Y0051728D01*
X0101289Y0051728D01*
X0100935Y0051374D01*
X0100935Y0050666D01*
X0101997Y0049605D01*
X0101289Y0048897D02*
X0102705Y0050313D01*
X0101289Y0048897D02*
X0100581Y0048897D01*
X0099874Y0049605D01*
X0099874Y0050313D01*
X0098657Y0050822D02*
X0100072Y0052238D01*
X0100072Y0053653D01*
X0098657Y0053653D01*
X0097241Y0052238D01*
X0098303Y0053299D02*
X0099718Y0051884D01*
X0094983Y0048741D02*
X0094276Y0049449D01*
X0093568Y0049449D01*
X0092153Y0048034D01*
X0094983Y0048034D01*
X0093568Y0046618D01*
X0092860Y0046618D01*
X0092153Y0047326D01*
X0092153Y0048034D01*
X0090935Y0048543D02*
X0089520Y0049959D01*
X0088657Y0050822D02*
X0090072Y0052238D01*
X0090072Y0053653D01*
X0088657Y0053653D01*
X0087241Y0052238D01*
X0088303Y0053299D02*
X0089718Y0051884D01*
X0090935Y0051374D02*
X0092351Y0051374D01*
X0090228Y0049251D01*
X0084983Y0048741D02*
X0084983Y0048034D01*
X0084630Y0047680D01*
X0083922Y0047680D01*
X0083922Y0046972D01*
X0083568Y0046618D01*
X0082860Y0046618D01*
X0082153Y0047326D01*
X0082153Y0048034D01*
X0080935Y0048543D02*
X0079520Y0049959D01*
X0078657Y0050822D02*
X0080072Y0052238D01*
X0080072Y0053653D01*
X0078657Y0053653D01*
X0077241Y0052238D01*
X0078303Y0053299D02*
X0079718Y0051884D01*
X0080935Y0051374D02*
X0082351Y0051374D01*
X0080228Y0049251D01*
X0083568Y0049449D02*
X0084276Y0049449D01*
X0084983Y0048741D01*
X0083922Y0047680D02*
X0083568Y0048034D01*
X0073443Y0046773D02*
X0071675Y0046773D01*
X0073001Y0048099D01*
X0073001Y0045447D01*
X0073001Y0044005D02*
X0072117Y0044005D01*
X0071675Y0043563D01*
X0072559Y0042679D02*
X0073001Y0042679D01*
X0073443Y0042237D01*
X0073443Y0041795D01*
X0073001Y0041353D01*
X0072117Y0041353D01*
X0071675Y0041795D01*
X0070543Y0041353D02*
X0068775Y0041353D01*
X0069659Y0041353D02*
X0069659Y0044005D01*
X0068775Y0043121D01*
X0067643Y0043121D02*
X0066759Y0044005D01*
X0065875Y0043121D01*
X0065875Y0041353D01*
X0064242Y0041353D02*
X0064242Y0041795D01*
X0063800Y0041795D01*
X0063800Y0041353D01*
X0064242Y0041353D01*
X0062668Y0041795D02*
X0062668Y0043563D01*
X0062226Y0044005D01*
X0060900Y0044005D01*
X0060900Y0041353D01*
X0062226Y0041353D01*
X0062668Y0041795D01*
X0063800Y0042679D02*
X0063800Y0043121D01*
X0064242Y0043121D01*
X0064242Y0042679D01*
X0063800Y0042679D01*
X0065875Y0042679D02*
X0067643Y0042679D01*
X0067643Y0043121D02*
X0067643Y0041353D01*
X0073001Y0042679D02*
X0073443Y0043121D01*
X0073443Y0043563D01*
X0073001Y0044005D01*
X0070543Y0045447D02*
X0068775Y0045447D01*
X0069659Y0045447D02*
X0069659Y0048099D01*
X0068775Y0047215D01*
X0067643Y0047215D02*
X0067643Y0045447D01*
X0065875Y0045447D02*
X0065875Y0047215D01*
X0066759Y0048099D01*
X0067643Y0047215D01*
X0067643Y0046773D02*
X0065875Y0046773D01*
X0064242Y0046773D02*
X0063800Y0046773D01*
X0063800Y0047215D01*
X0064242Y0047215D01*
X0064242Y0046773D01*
X0062668Y0047657D02*
X0062226Y0048099D01*
X0061342Y0048099D01*
X0060900Y0047657D01*
X0060900Y0045889D01*
X0061342Y0045447D01*
X0062226Y0045447D01*
X0062668Y0045889D01*
X0063800Y0045889D02*
X0063800Y0045447D01*
X0064242Y0045447D01*
X0064242Y0045889D01*
X0063800Y0045889D01*
X0058108Y0046784D02*
X0058108Y0047491D01*
X0057047Y0048553D01*
X0054924Y0046430D01*
X0055985Y0045368D01*
X0056693Y0045368D01*
X0058108Y0046784D01*
X0055830Y0049063D02*
X0055830Y0049770D01*
X0054768Y0050832D01*
X0052645Y0048709D01*
X0053706Y0047647D01*
X0054414Y0047647D01*
X0055830Y0049063D01*
X0053905Y0051695D02*
X0052489Y0050280D01*
X0051074Y0050280D01*
X0051074Y0051695D01*
X0052489Y0053111D01*
X0057866Y0052863D02*
X0058928Y0051801D01*
X0059635Y0051801D01*
X0059989Y0052155D01*
X0059989Y0052863D01*
X0058928Y0053924D01*
X0059989Y0052863D02*
X0060697Y0052863D01*
X0061051Y0053216D01*
X0061051Y0053924D01*
X0059989Y0054986D01*
X0057866Y0052863D01*
X0060145Y0050584D02*
X0061560Y0049168D01*
X0060853Y0049876D02*
X0062976Y0051999D01*
X0061560Y0051999D01*
X0052877Y0046352D02*
X0052376Y0046853D01*
X0051375Y0046853D01*
X0050875Y0046352D01*
X0050875Y0044350D01*
X0051375Y0043850D01*
X0052376Y0043850D01*
X0052877Y0044350D01*
X0052376Y0038103D02*
X0051375Y0038103D01*
X0050875Y0037602D01*
X0050875Y0035600D01*
X0051375Y0035100D01*
X0052376Y0035100D01*
X0052877Y0035600D01*
X0052877Y0036601D01*
X0051876Y0036601D01*
X0052877Y0037602D02*
X0052376Y0038103D01*
X0052376Y0028103D02*
X0050875Y0028103D01*
X0050875Y0025100D01*
X0052376Y0025100D01*
X0052877Y0025600D01*
X0052877Y0027602D01*
X0052376Y0028103D01*
X0058194Y0026000D02*
X0060556Y0026000D01*
X0070694Y0026000D02*
X0073056Y0026000D01*
X0077872Y0026127D02*
X0080375Y0026127D01*
X0080875Y0026628D01*
X0080875Y0027629D01*
X0080375Y0028129D01*
X0077872Y0028129D01*
X0078873Y0029350D02*
X0077872Y0030351D01*
X0080875Y0030351D01*
X0080875Y0029350D02*
X0080875Y0031352D01*
X0073056Y0019700D02*
X0070694Y0019700D01*
X0077239Y0010964D02*
X0079362Y0008841D01*
X0111622Y0024128D02*
X0112123Y0023627D01*
X0114125Y0023627D01*
X0114625Y0024128D01*
X0114625Y0025129D01*
X0114125Y0025629D01*
X0115600Y0025419D02*
X0115600Y0027781D01*
X0114625Y0026850D02*
X0112623Y0028852D01*
X0112123Y0028852D01*
X0111622Y0028351D01*
X0111622Y0027350D01*
X0112123Y0026850D01*
X0114625Y0026850D02*
X0114625Y0028852D01*
X0112123Y0025629D02*
X0111622Y0025129D01*
X0111622Y0024128D01*
X0121900Y0025419D02*
X0121900Y0027781D01*
X0123725Y0027781D02*
X0123725Y0025419D01*
X0130025Y0025419D02*
X0130025Y0027781D01*
X0114625Y0035766D02*
X0111622Y0035766D01*
X0114625Y0035766D02*
X0114625Y0037768D01*
X0114625Y0038989D02*
X0111622Y0038989D01*
X0111622Y0040990D01*
X0113124Y0039989D02*
X0113124Y0038989D01*
X0114625Y0038989D02*
X0114625Y0040990D01*
X0114625Y0042211D02*
X0111622Y0042211D01*
X0111622Y0043713D01*
X0112123Y0044213D01*
X0114125Y0044213D01*
X0114625Y0043713D01*
X0114625Y0042211D01*
X0115600Y0039169D02*
X0115600Y0045862D01*
X0121900Y0045862D02*
X0121900Y0039169D01*
X0123725Y0039169D02*
X0123725Y0041531D01*
X0094983Y0048034D02*
X0094983Y0048741D01*
D12*
X0075000Y0049100D02*
X0075000Y0047225D01*
X0074375Y0046600D01*
X0075000Y0049100D02*
X0073750Y0050350D01*
X0071250Y0050350D01*
X0068125Y0053475D01*
X0069375Y0053475D01*
X0068125Y0053475D02*
X0068125Y0052225D01*
X0050000Y0054100D02*
X0050000Y0061600D01*
X0047500Y0011600D02*
X0040000Y0011600D01*
D13*
X0054601Y0027176D02*
X0054601Y0039774D01*
X0076649Y0039774D01*
X0076649Y0027176D01*
X0070625Y0027176D01*
X0060625Y0027176D02*
X0054601Y0027176D01*
X0082372Y0018805D02*
X0082372Y0039671D01*
X0110128Y0039671D02*
X0110128Y0023135D01*
M02*
