G75*
%MOIN*%
%OFA0B0*%
%FSLAX25Y25*%
%IPPOS*%
%LPD*%
%AMOC8*
5,1,8,0,0,1.08239X$1,22.5*
%
%ADD10C,0.00000*%
%ADD11R,0.02175X0.05324*%
%ADD12R,0.06506X0.06506*%
%ADD13OC8,0.06506*%
%ADD14R,0.04143X0.04537*%
%ADD15R,0.07293X0.02765*%
%ADD16R,0.06600X0.06600*%
%ADD17OC8,0.06600*%
%ADD18R,0.04537X0.04931*%
%ADD19R,0.04931X0.04537*%
%ADD20C,0.03300*%
D10*
X0040000Y0001600D02*
X0040000Y0061561D01*
X0140000Y0061600D01*
X0140000Y0001600D01*
X0040000Y0001600D01*
D11*
X0084734Y0020773D03*
X0087293Y0020773D03*
X0089852Y0020773D03*
X0092411Y0020773D03*
X0094970Y0020773D03*
X0097530Y0020773D03*
X0100089Y0020773D03*
X0102648Y0020773D03*
X0105207Y0020773D03*
X0107766Y0020773D03*
X0107766Y0042427D03*
X0105207Y0042427D03*
X0102648Y0042427D03*
X0100089Y0042427D03*
X0097530Y0042427D03*
X0094970Y0042427D03*
X0092411Y0042427D03*
X0089852Y0042427D03*
X0087293Y0042427D03*
X0084734Y0042427D03*
D12*
X0045000Y0006600D03*
D13*
X0055000Y0006600D03*
X0065000Y0006600D03*
X0075000Y0006600D03*
X0085000Y0006600D03*
X0095000Y0006600D03*
X0105000Y0006600D03*
X0115000Y0006600D03*
X0125000Y0006600D03*
X0135000Y0006600D03*
D14*
X0073696Y0030325D03*
X0073696Y0036625D03*
X0057554Y0036625D03*
X0057554Y0030325D03*
D15*
X0065625Y0027569D03*
D16*
X0045000Y0056600D03*
D17*
X0055000Y0056600D03*
X0065000Y0056600D03*
X0075000Y0056600D03*
X0085000Y0056600D03*
X0095000Y0056600D03*
X0105000Y0056600D03*
X0115000Y0056600D03*
X0125000Y0056600D03*
X0135000Y0056600D03*
X0045000Y0046600D03*
X0045000Y0036600D03*
X0045000Y0026600D03*
X0045000Y0016600D03*
D18*
X0118750Y0023254D03*
X0126875Y0023254D03*
X0126875Y0029946D03*
X0118750Y0029946D03*
X0118750Y0037004D03*
X0126875Y0037004D03*
X0126875Y0043696D03*
X0118750Y0043696D03*
D19*
X0075221Y0022850D03*
X0068529Y0022850D03*
X0062721Y0022850D03*
X0056029Y0022850D03*
D20*
X0065625Y0030975D03*
X0080000Y0035350D03*
X0095000Y0032225D03*
X0095000Y0025975D03*
X0131875Y0029946D03*
X0131875Y0037004D03*
X0097500Y0047850D03*
X0080625Y0044725D03*
X0064375Y0049725D03*
M02*
